<?xml version="1.0" encoding="UTF-8"?>
<svg xmlns="http://www.w3.org/2000/svg" xmlns:xlink="http://www.w3.org/1999/xlink" width="192" height="192" viewBox="0 0 58 59" version="1.1"><!-- Generator: Sketch 51.3 (57544) - http://www.bohemiancoding.com/sketch --><title>052 - Split Personality</title><desc>Created with Sketch.</desc><defs/><g id="Page-1" stroke="none" stroke-width="1" fill="none" fill-rule="evenodd"><g id="052---Split-Personality" fill-rule="nonzero"><path d="M17.851,51.3 C21.281,52.851 22.783,59 22.783,59 L47.883,58.931 C47.4121814,57.9546289 46.877696,57.01026 46.283,56.104 C45.8079274,55.1351664 45.409054,54.1307944 45.09,53.1 C44.5026366,51.1113602 44.0959865,49.0737587 43.875,47.012 C43.5021266,43.8441928 43.9794793,40.6342289 45.258,37.712 C46.385,35.142 48.342,33.106 49.835,30.753 C51.3118424,28.4546935 52.1069104,25.7848183 52.128,23.053 C52.1837766,20.2855688 51.8440127,17.524356 51.119,14.853 C50.1713082,11.6167572 48.1935564,8.77810583 45.486,6.768 C40.534,2.88 35.474,0.706 29.069,1.032 C25.8639061,1.25519593 22.6794183,1.71241457 19.541,2.4 C16.123,3.088 12.504,4.366 10.051,6.956 C8.37766038,8.74409793 7.08486958,10.8533882 6.251,13.156 C5.86015176,14.3014161 5.54218297,15.470419 5.299,16.656 C4.88921474,17.9456944 4.39515102,19.2070768 3.82,20.432 C3.65097873,20.8051029 3.57743674,21.214395 3.606,21.623 C3.8,23.007 5.874,23.6 5.89,25.029 C5.86871908,25.3444419 5.77163847,25.6500914 5.607,25.92 C4.39034374,28.4911042 2.89684314,30.921815 1.153,33.169 C0.742,33.674 -0.095,34.669 0.009,35.383 C0.083,35.89 0.691,36.311 1.066,36.59 C1.866,37.184 3.495,37.59 3.698,38.662 C3.80398936,39.2078042 3.73831308,39.7730394 3.51,40.28 C2.956,41.447 2.343,42.069 2.778,42.435 C3.213,42.801 4.378,43.68 4.378,43.68 C4.378,43.68 3.272,45.094 3.884,45.528 C4.645,46.068 5.612,46.317 5.871,47.328 C5.94680483,48.1291298 5.86666115,48.9373584 5.635,49.708 C5.5563755,50.461975 5.65499664,51.2238918 5.923,51.933 C6.28395493,53.3512509 7.70070311,54.2311447 9.132,53.926 C12.0837266,53.209144 14.9943455,52.3325199 17.851,51.3 Z" id="Shape" fill="#955BA5"/><path d="M58,30 C57.9946937,35.0047678 55.1168524,39.5620809 50.6002882,41.7180902 C46.0837239,43.8740996 40.7305517,43.2459106 36.8358281,40.1028456 C32.9411045,36.9597807 31.1965094,31.8600296 32.35,26.99 L44.65,17.01 C44.77,17 44.88,17 45,17 C52.1797017,17 58,22.8202983 58,30 Z" id="Shape" fill="#4482C3"/><path d="M57,29 C57.0009134,34.1302297 53.9846056,38.7812159 49.3001133,40.8728158 C44.6156211,42.9644157 39.1391346,42.105415 35.32,38.68 C32.4779979,35.5034275 31.3688748,31.1378889 32.35,26.99 L44.65,17.01 C44.77,17 44.88,17 45,17 C48.204147,16.9962425 51.2962259,18.1789271 53.68,20.32 C55.8210729,22.7037741 57.0037575,25.795853 57,29 Z" id="Shape" fill="#2FA8CC"/><path d="M50,39 C49.4477153,39 49,38.5522847 49,38 C49,35.790861 47.209139,34 45,34 C42.790861,34 41,35.790861 41,38 C41,38.5522847 40.5522847,39 40,39 C39.4477153,39 39,38.5522847 39,38 C39,34.6862915 41.6862915,32 45,32 C48.3137085,32 51,34.6862915 51,38 C51,38.5522847 50.5522847,39 50,39 Z" id="Shape" fill="#802D40"/><path d="M9.227,17.467 C8.96351193,17.4090801 8.73460382,17.2471569 8.59224806,17.0179942 C8.4498923,16.7888316 8.40616709,16.5118728 8.471,16.25 C8.62815969,15.5552533 8.82515171,14.8701218 9.061,14.198 C9.7565457,12.2734195 10.8341474,10.509391 12.229,9.012 C13.853,7.3 16.516,6.06 20.145,5.338 C20.6867913,5.23030449 21.2133045,5.58220868 21.321,6.12400001 C21.4286955,6.66579133 21.0767913,7.19230446 20.535,7.3 C17.321,7.939 15.015,8.978 13.682,10.386 C12.4735494,11.6858491 11.5402067,13.2164768 10.938,14.886 C10.7285574,15.4871971 10.5536061,16.0998605 10.414,16.721 C10.2880679,17.2518234 9.7599176,17.5837527 9.227,17.467 Z" id="Shape" fill="#B49ACA"/><circle id="Oval" fill="#B49ACA" cx="8" cy="21" r="1"/><circle id="Oval" fill="#ECF0F1" cx="50" cy="27" r="3"/><circle id="Oval" fill="#ECF0F1" cx="40" cy="27" r="3"/><circle id="Oval" fill="#35495E" cx="40" cy="27" r="2"/><circle id="Oval" fill="#35495E" cx="50" cy="27" r="2"/><circle id="Oval" fill="#ECF0F1" cx="39" cy="26" r="1"/><circle id="Oval" fill="#ECF0F1" cx="49" cy="26" r="1"/><path d="M45,14 C44.9989078,20.1354806 40.7082607,25.4349199 34.7073017,26.7126581 C28.7063427,27.9903963 22.6290001,24.8985335 20.1285557,19.2956859 C17.6281113,13.6928383 19.3853808,7.10453707 24.3440142,3.49121747 C29.3026476,-0.122102131 36.1125188,0.223386803 40.68,4.32 C43.4298618,6.78637471 45.0006576,10.3061208 45,14 Z" id="Shape" fill="#F0C419"/><path d="M44,13 C44.0009134,18.1302297 40.9846056,22.7812159 36.3001133,24.8728158 C31.6156211,26.9644157 26.1391346,26.105415 22.32,22.68 C17.6890411,17.541324 17.8932769,9.67609563 22.7846863,4.78468626 C27.6760956,-0.106723107 35.541324,-0.3109589 40.68,4.32 C42.8210729,6.7037741 44.0037575,9.795853 44,13 Z" id="Shape" fill="#F3D55B"/><circle id="Oval" fill="#ECF0F1" cx="37" cy="11" r="3"/><circle id="Oval" fill="#ECF0F1" cx="27" cy="11" r="3"/><circle id="Oval" fill="#35495E" cx="27" cy="11" r="2"/><circle id="Oval" fill="#35495E" cx="37" cy="11" r="2"/><path d="M32,23 C28.6876624,22.9966926 26.0033074,20.3123376 26,17 C26,16.4477153 26.4477153,16 27,16 C27.5522847,16 28,16.4477153 28,17 C28,19.209139 29.790861,21 32,21 C34.209139,21 36,19.209139 36,17 C36,16.4477153 36.4477153,16 37,16 C37.5522847,16 38,16.4477153 38,17 C37.9966926,20.3123376 35.3123376,22.9966926 32,23 Z" id="Shape" fill="#802D40"/><circle id="Oval" fill="#ECF0F1" cx="26" cy="10" r="1"/><circle id="Oval" fill="#ECF0F1" cx="36" cy="10" r="1"/></g></g></svg>
